<svg xmlns="http://www.w3.org/2000/svg" viewBox="0 0 39 11"><title>Pega text-only logo</title><path fill="#fff" d="M7.72 3.82c0 2.25-1.78 3.41-4 3.41h-1.6v3H0V.42h3.94c2.36 0 3.78 1.39 3.78 3.4zm-4-1.47h-1.6v3h1.7A1.47 1.47 0 0 0 5.5 3.82c0-.91-.65-1.47-1.75-1.47zm7.68 5.91h5.3v2H9.29V.42h7.38v1.93h-5.24v2h4.24v1.9h-4.24zM23.18 0a5 5 0 0 1 3.57 1.28L25.63 2.8a3.78 3.78 0 0 0-1.05-.63A4.32 4.32 0 0 0 23.31 2 3.17 3.17 0 0 0 20 5.27a3.16 3.16 0 0 0 1 2.39 3.07 3.07 0 0 0 2.17.84 4.6 4.6 0 0 0 2.09-.5V6.19h-2.2V4.38h4.25v4.56a5.41 5.41 0 0 1-4.08 1.57A5.35 5.35 0 0 1 19.43 9a5.05 5.05 0 0 1-1.56-3.74 5.21 5.21 0 0 1 1.56-3.76A5.31 5.31 0 0 1 23.18 0zm11.29.42l4.13 9.79h-2.25L35.48 8h-4.06l-.9 2.18h-2.2L32.51.42zm.25 5.72L33.44 3l-1.29 3.14zm3-5a.71.71 0 0 1-.74.75.71.71 0 0 1-.73-.75.73.73 0 0 1 .75-.72.72.72 0 0 1 .75.71zM37 .53a.59.59 0 0 0-.6.6.61.61 0 1 0 1.21 0 .6.6 0 0 0-.61-.6zm-.24 1V.71H37c.12 0 .18.06.25.06a.21.21 0 0 1 .07.18.19.19 0 0 1-.07.18s-.07.08-.13.08l.26.36h-.2L37 1.28h-.1v.29zm.13-.44h.23a.26.26 0 0 0 .07-.09h-.06c-.05-.17-.05-.17-.13-.17h-.1z"/></svg>