<svg viewBox="0 0 652.4 652.4" xmlns="http://www.w3.org/2000/svg"><circle cx="326.2" cy="326.2" fill="#a3b5c7" opacity=".25" r="326.2"/><path d="m351.37 84.86a5.46 5.46 0 0 1 -6.79-2.6l-.29-.58a2.77 2.77 0 0 0 -4.78 2.17l.15.58a5.46 5.46 0 0 1 -2.6 6.79l-.58.29a2.77 2.77 0 0 0 2.17 4.78l.58-.15a5.46 5.46 0 0 1 6.79 2.6l.29.58a2.77 2.77 0 0 0 4.78-2.17l-.15-.58a5.46 5.46 0 0 1 2.6-6.79l.58-.29a2.77 2.77 0 0 0 -2.12-4.78 1.08 1.08 0 0 0 -.63.15zm233.7 182.43c-8.37 2.82-14.34 6.95-17.93 12.28-4.13 6-5.44 13.48-3.91 22.61-3.16-8.81-7.83-15.11-14-18.7-5.65-3.26-12.6-4.35-21-3.26 8.48-2.61 14.45-6.85 18.15-12.61s4.89-13.26 3.8-22.39c2.94 9.68 7.82 16.31 14.82 19.78 5.51 2.72 12.25 3.48 20.07 2.29zm-39.67 30c-1 1.41-1.19 3.15-.87 5.43a8 8 0 0 0 -3.48-4.67 7.83 7.83 0 0 0 -5.21-.76 7.8 7.8 0 0 0 4.13-2.72c1.19-1.41 1.63-3.48 1.3-6a8.06 8.06 0 0 0 2.94 4.46 8.24 8.24 0 0 0 5.86 1 7.66 7.66 0 0 0 -4.67 3.26zm32-47a8.74 8.74 0 0 0 -4.68 3.26 8.24 8.24 0 0 0 -.87 5.44 8.3 8.3 0 0 0 -3.15-4.46 8.62 8.62 0 0 0 -5.65-1.09 8 8 0 0 0 4.45-3 8.25 8.25 0 0 0 1-5.76 7.17 7.17 0 0 0 3.37 4.67 8.11 8.11 0 0 0 5.49.98zm-159.6 303.22c-8.23-2.85-15.36-3.17-21.38-1.27-6.81 2.22-12.35 7.28-16.63 15.36 2.85-8.87 2.85-16.47.32-23-2.53-5.86-7.28-10.93-14.41-15 8.08 3 15.36 3.33 21.7 1.11 6.33-2.37 11.71-7.44 16.31-15.2-3.49 9.34-3.65 17.42-.32 24.23 2.85 5.53 7.61 10.12 14.41 13.77z" fill="#a3b5c7"/><path d="m427.69 323.87a160.58 160.58 0 0 1 -150.34 160.13l-10.22.28c-88.58 0-160.41-72-160.41-160.55s72-160.41 160.55-160.41a160 160 0 0 1 80.07 21.43 162.48 162.48 0 0 1 47.84 42.31 160.31 160.31 0 0 1 32.51 96.81z" fill="#c2cbd5"/><g fill="#a3b5c7" opacity=".6"><path d="m227.67 222a173.83 173.83 0 0 0 -24 12.63 36.78 36.78 0 0 0 -12.78 11.5 14.54 14.54 0 0 0 -.28 16.32c4 5.4 11.35 6.25 18 6.53a34.4 34.4 0 0 0 32.8-10.78l13.77-12.5c5-4.4 9.93-10.36 8-16.46a14.4 14.4 0 0 0 -11.79-7.95 48.44 48.44 0 0 0 -34.63 6.1"/><circle cx="170.03" cy="387.19" r="8.52"/><circle cx="341.8" cy="333.67" r="30.95"/><path d="m395.46 227.2a42.23 42.23 0 1 1 -47.84-42.45 161.09 161.09 0 0 1 47.84 42.45zm2.98 188.94a160.12 160.12 0 0 1 -120.95 67.72c0-2.13-.28-4.4-.28-6.67a76.15 76.15 0 0 1 76-76.09 78 78 0 0 1 45.28 15z"/></g><path d="m433 331.54-5.88-4.16-.42 7.19c-.18 3.12-.46 6.23-.81 9.24l-.27 2.29 1.84 1.38c18.5 13.85 23.68 24.33 22.49 29.1-1 4.06-7.38 8.33-17 11.42-12.65 4.05-30.73 6.19-52.27 6.19-37.29 0-83.42-6.36-129.88-17.91-52.2-13-99.65-31-133.63-50.82-16-9.3-28.25-18.66-35.52-27.06-5.23-6-7.85-11.72-7-15.15 1-4.06 7.37-8.33 17-11.42a127.55 127.55 0 0 1 24.54-4.83l2.37-.26.9-2.2c1.17-2.87 2.42-5.68 3.7-8.37l3-6.32-7 .61c-35.54 3.09-56.4 13.07-60.33 28.87-4.34 17.67 12.97 38.46 50.17 60.1 35.21 20.57 84.17 39.19 137.81 52.57 47.71 11.86 95.22 18.4 133.78 18.4 50 0 80.2-10.62 85-29.88 3.58-14.45-7.71-31.38-32.59-48.98z" fill="#8e9fad"/></svg>